<svg width="50" height="50" viewBox="0 0 50 50" fill="none" xmlns="http://www.w3.org/2000/svg">
<path d="M8.33333 27.0833H20.8333C21.9792 27.0833 22.9167 26.1458 22.9167 25V8.33333C22.9167 7.1875 21.9792 6.25 20.8333 6.25H8.33333C7.1875 6.25 6.25 7.1875 6.25 8.33333V25C6.25 26.1458 7.1875 27.0833 8.33333 27.0833ZM8.33333 43.75H20.8333C21.9792 43.75 22.9167 42.8125 22.9167 41.6667V33.3333C22.9167 32.1875 21.9792 31.25 20.8333 31.25H8.33333C7.1875 31.25 6.25 32.1875 6.25 33.3333V41.6667C6.25 42.8125 7.1875 43.75 8.33333 43.75ZM29.1667 43.75H41.6667C42.8125 43.75 43.75 42.8125 43.75 41.6667V25C43.75 23.8542 42.8125 22.9167 41.6667 22.9167H29.1667C28.0208 22.9167 27.0833 23.8542 27.0833 25V41.6667C27.0833 42.8125 28.0208 43.75 29.1667 43.75ZM27.0833 8.33333V16.6667C27.0833 17.8125 28.0208 18.75 29.1667 18.75H41.6667C42.8125 18.75 43.75 17.8125 43.75 16.6667V8.33333C43.75 7.1875 42.8125 6.25 41.6667 6.25H29.1667C28.0208 6.25 27.0833 7.1875 27.0833 8.33333Z" fill="black"/>
</svg>
